<svg width="108" height="116" viewBox="0 0 108 116" fill="none" xmlns="http://www.w3.org/2000/svg">
<path d="M32.5807 18.8713L20.57 25.5301L20.102 25.0302M32.5807 18.8713L26.642 13.7776M32.5807 18.8713L32.1742 28.5851M14.8883 19.4603L26.642 13.7776M14.8883 19.4603L11.2727 15.5977M14.8883 19.4603L20.102 25.0302M26.642 13.7776L22.593 10.3045M22.593 10.3045L11.2727 15.5977M22.593 10.3045L17.2617 5.73174M11.2727 15.5977L6.49493 10.4935M6.49493 10.4935L1.71716 5.38935L11.9304 1.15894L17.2617 5.73174M6.49493 10.4935L17.2617 5.73174M32.1742 28.5851L20.102 25.0302M32.1742 28.5851L39.2775 22.9703L44.9045 27.3624L46.3623 38.7931L38.6491 44.8393M27.3919 53.6636L16.6684 40.3501M27.3919 53.6636L33.0205 49.2515M27.3919 53.6636L46.5425 81.4715L46.59 91.9744L3.63274 32.6776L1.77332 22.1441L16.6684 40.3501M16.6684 40.3501L24.229 35.1982M38.6491 44.8393L36.2808 34.3534L31.7895 30.0462L24.229 35.1982M38.6491 44.8393L33.0205 49.2515M38.6491 44.8393L40.1608 45.3815M33.0205 49.2515L29.6507 41.3127L24.229 35.1982M41.4716 57.3703L52.2547 49.7187L40.1608 45.3815M41.4716 57.3703L40.1608 45.3815M41.4716 57.3703L47.8036 66.626M53.4925 50.0445L62.4178 56.9907M62.4178 56.9907L47.8036 66.626M62.4178 56.9907L70.5595 65.028M47.8036 66.626L55.7031 74.9552M55.7031 74.9552L70.5595 65.028M55.7031 74.9552L64.9545 86.3187M70.5595 65.028L80.2159 73.5965M64.9545 86.3187L80.2159 73.5965M64.9545 86.3187L75.059 99.4692M80.2159 73.5965L92.2176 84.5681M75.059 99.4692L92.2176 84.5681M75.059 99.4692L88.0382 114.269L106.42 97.2351L92.2176 84.5681" stroke="#18F5FF" stroke-width="2"/>
</svg>
